<!-- <svg xmlns="http://www.w3.org/2000/svg" viewBox="0 0 512 512">
<defs>
  <linearGradient id="grad" x1="0" y1="0" x2="1" y2="1">
    <stop offset="0%" stop-color="#8BCF96"/>
    <stop offset="100%" stop-color="#4C8F5A"/>
  </linearGradient>
</defs>
<path fill="url(#grad)" opacity="0.92"
d="M256 16c-84 90-146 144-224 160 40 56 96 104 224 152
128-48 184-96 224-152-78-16-140-70-224-160zm0 480c44-40 96-120 96-192-56 16-96 56-96 56s-40-40-96-56c0 72 52 152 96 192z"/>
</svg> -->
<!-- <svg fill="#1a590d" version="1.1" id="Capa_1" xmlns="http://www.w3.org/2000/svg" xmlns:xlink="http://www.w3.org/1999/xlink" width="256px" height="256px" viewBox="0 0 48 48" xml:space="preserve" stroke="#1a590d"><g id="SVGRepo_bgCarrier" stroke-width="0"></g><g id="SVGRepo_tracerCarrier" stroke-linecap="round" stroke-linejoin="round"></g><g id="SVGRepo_iconCarrier"> <g> <path d="M18.492,13.037C18.492,7.054,24.001,0,24.001,0s5.509,7.054,5.509,13.037s-5.509,8.63-5.509,8.63 S18.492,19.021,18.492,13.037z M11.572,28.686c4.793,3.58,10.211,0.75,10.211,0.75s1.176-5.997-3.618-9.578 c-4.793-3.581-13.741-3.389-13.741-3.389S6.779,25.104,11.572,28.686z M27.193,29.841c1.772,0.627,5.677,1.503,9.236-1.155 c4.793-3.582,7.146-12.217,7.146-12.217s-8.947-0.191-13.74,3.389c-3.154,2.355-3.725,5.755-3.744,7.808h-0.001v8.236h-0.049H6.22 C6.22,42.607,14.236,48,24.001,48c9.767,0,17.78-5.393,17.78-12.098H27.193V29.841z"></path> </g> </g></svg> -->
<svg fill="#2e9f18" version="1.1" id="Capa_1" xmlns="http://www.w3.org/2000/svg" xmlns:xlink="http://www.w3.org/1999/xlink" width="256px" height="256px" viewBox="0 0 48 48" xml:space="preserve" stroke="#2e9f18"><g id="SVGRepo_bgCarrier" stroke-width="0"></g><g id="SVGRepo_tracerCarrier" stroke-linecap="round" stroke-linejoin="round"></g><g id="SVGRepo_iconCarrier"> <g> <path d="M18.492,13.037C18.492,7.054,24.001,0,24.001,0s5.509,7.054,5.509,13.037s-5.509,8.63-5.509,8.63 S18.492,19.021,18.492,13.037z M11.572,28.686c4.793,3.58,10.211,0.75,10.211,0.75s1.176-5.997-3.618-9.578 c-4.793-3.581-13.741-3.389-13.741-3.389S6.779,25.104,11.572,28.686z M27.193,29.841c1.772,0.627,5.677,1.503,9.236-1.155 c4.793-3.582,7.146-12.217,7.146-12.217s-8.947-0.191-13.74,3.389c-3.154,2.355-3.725,5.755-3.744,7.808h-0.001v8.236h-0.049H6.22 C6.22,42.607,14.236,48,24.001,48c9.767,0,17.78-5.393,17.78-12.098H27.193V29.841z"></path> </g> </g></svg>